<?xml version="1.0" encoding="UTF-8"?>
<svg id="Layer_2" data-name="Layer 2" xmlns="http://www.w3.org/2000/svg" viewBox="0 0 333.56 303.75">
  <defs>
    <style>
      .cls-1 {
        fill: #231f20;
      }
    </style>
  </defs>
  <g id="Layer_1-2" data-name="Layer 1">
    <g>
      <ellipse class="cls-1" cx="89.77" cy="82.52" rx="21.41" ry="20.35"/>
      <ellipse class="cls-1" cx="89.77" cy="221.23" rx="21.41" ry="20.35"/>
      <ellipse class="cls-1" cx="243.8" cy="82.52" rx="21.41" ry="20.35"/>
      <ellipse class="cls-1" cx="243.8" cy="221.23" rx="21.41" ry="20.35"/>
    </g>
    <path class="cls-1" d="M292.4,151.88c24.75-14.71,41.17-40.3,41.17-69.35C333.56,37.02,293.29,0,243.79,0c-32.66,0-61.31,16.12-77.01,40.17C151.08,16.12,122.43,0,89.77,0,40.27,0,0,37.02,0,82.52c0,29.05,16.42,54.64,41.16,69.35C16.42,166.59,0,192.18,0,221.23c0,45.5,40.27,82.53,89.77,82.53,32.66,0,61.31-16.12,77.01-40.17,15.71,24.04,44.35,40.17,77.01,40.17,49.5,0,89.77-37.02,89.77-82.53,0-29.05-16.42-54.64-41.17-69.35ZM243.79,26.56c34.86,0,63.21,25.11,63.21,55.97s-28.36,55.97-63.21,55.97-63.21-25.11-63.21-55.97,28.36-55.97,63.21-55.97ZM26.56,82.52c0-30.86,28.36-55.97,63.21-55.97s63.21,25.11,63.21,55.97-28.36,55.97-63.21,55.97-63.21-25.11-63.21-55.97ZM89.77,277.2c-34.86,0-63.21-25.11-63.21-55.97s28.36-55.97,63.21-55.97,63.21,25.11,63.21,55.97-28.36,55.97-63.21,55.97ZM166.78,172.23c-11.82,0-21.41-9.11-21.41-20.35s9.59-20.35,21.41-20.35,21.41,9.11,21.41,20.35-9.59,20.35-21.41,20.35ZM243.79,277.2c-34.86,0-63.21-25.11-63.21-55.97s28.36-55.97,63.21-55.97,63.21,25.11,63.21,55.97-28.36,55.97-63.21,55.97Z"/>
  </g>
</svg>